<?xml version="1.0" encoding="utf-8"?>
<!-- Generator: Adobe Illustrator 28.0.0, SVG Export Plug-In . SVG Version: 6.00 Build 0)  -->
<svg version="1.1" id="Layer_1" xmlns="http://www.w3.org/2000/svg" xmlns:xlink="http://www.w3.org/1999/xlink" x="0px" y="0px"
	 viewBox="0 0 792 612" style="enable-background:new 0 0 792 612;" xml:space="preserve">
<style type="text/css">
	.st0{fill:#27AAE1;stroke:#000000;stroke-width:6;stroke-miterlimit:10;}
	.st1{fill:#FFFFFF;}
	.st2{font-family:'OCRAExtended';}
	.st3{font-size:35.9196px;}
	.st4{fill:#ED1C24;}
	.st5{fill:none;stroke:#ED1C24;stroke-width:4;stroke-miterlimit:10;}
	.st6{fill:none;}
	.st7{font-size:28.1654px;}
	.st8{font-size:26.1643px;}
	.st9{font-size:23.0551px;}
</style>
<rect x="296.14" y="46.64" class="st0" width="174.46" height="66.68"/>
<rect x="296.14" y="46.64" class="st0" width="174.46" height="66.68"/>
<text transform="matrix(1 0 0 1 319.3327 89.5664)" class="st1 st2 st3">Kernel</text>
<g>
	<path class="st4" d="M384.15,179.88c0-64.39,0-64.39,0-64.39"/>
	<g>
		<path class="st5" d="M384.15,168.57c0-53.09,0-53.09,0-53.09"/>
		<g>
			<polygon class="st4" points="396.87,144.93 393.11,143.56 384.15,168.18 375.19,143.56 371.43,144.93 384.15,179.88 			"/>
		</g>
	</g>
</g>
<rect x="290.01" y="182.68" class="st0" width="188.28" height="50.44"/>
<text transform="matrix(1 0 0 1 339.3478 219.1211)" class="st1 st2 st3">Init</text>
<rect x="361.97" y="193.78" class="st6" width="50.02" height="0"/>
<g>
	<path class="st4" d="M191.78,336.65c138.6-95.15,138.6-95.15,138.6-95.15"/>
	<g>
		<path class="st5" d="M201.1,330.26c129.28-88.75,129.28-88.75,129.28-88.75"/>
		<g>
			<polygon class="st4" points="227.79,327.36 226.79,323.49 201.42,330.04 216.65,308.71 213.4,306.39 191.78,336.65 			"/>
		</g>
	</g>
</g>
<rect x="24.91" y="353.62" class="st0" width="342.3" height="114.1"/>
<text transform="matrix(1.1368 0 0 1 43.5021 381.3315)"><tspan x="0" y="0" class="st1 st2 st7">Installd,</tspan><tspan x="0" y="33.8" class="st1 st2 st7">adbd,</tspan><tspan x="0" y="67.6" class="st1 st2 st7">servicemanger...</tspan></text>
<g>
	<path class="st4" d="M585.16,338.39c-136.15-98.62-136.15-98.62-136.15-98.62"/>
	<g>
		<path class="st5" d="M576.01,331.76c-126.99-91.99-126.99-91.99-126.99-91.99"/>
		<g>
			<polygon class="st4" points="564.32,307.59 561.01,309.83 575.69,331.53 550.5,324.35 549.4,328.19 585.16,338.39 			"/>
		</g>
	</g>
</g>
<rect x="505.85" y="347.53" class="st0" width="176.27" height="67.6"/>
<text transform="matrix(1 0 0 1 531.7368 390.1414)" class="st1 st2 st3">Zygote</text>
<g>
	<path class="st4" d="M435.96,491.5c97.93-67.23,97.93-67.23,97.93-67.23"/>
	<g>
		<path class="st5" d="M445.28,485.1c88.61-60.83,88.61-60.83,88.61-60.83"/>
		<g>
			<polygon class="st4" points="471.98,482.21 470.98,478.33 445.61,484.88 460.83,463.56 457.58,461.23 435.96,491.5 			"/>
		</g>
	</g>
</g>
<g>
	<path class="st4" d="M698.1,498.35c-95.46-74.08-95.46-74.08-95.46-74.08"/>
	<g>
		<path class="st5" d="M689.17,491.42c-86.53-67.15-86.53-67.15-86.53-67.15"/>
		<g>
			<polygon class="st4" points="678.29,466.87 674.9,469.01 688.86,491.18 663.91,483.17 662.69,486.97 698.1,498.35 			"/>
		</g>
	</g>
</g>
<rect x="201.5" y="503.34" class="st0" width="331.43" height="36.74"/>
<text transform="matrix(1 0 0 1 206.6502 529.8813)" class="st1 st2 st8">App1, App2, ...App N</text>
<rect x="320.8" y="515.68" class="st6" width="50.02" height="0"/>
<rect x="582.59" y="507.49" class="st0" width="199.05" height="32.38"/>
<text transform="matrix(1 0 0 1 595.2521 530.8806)" class="st1 st2 st9">System server</text>
</svg>
